<mxfile host="app.diagrams.net" modified="2024-02-17T20:19:09.920Z" agent="Mozilla/5.0 (Windows NT 10.0; Win64; x64) AppleWebKit/537.36 (KHTML, like Gecko) Chrome/121.0.0.0 Safari/537.36" etag="wdAwOYQe-PyPhpwnZ5hm" version="23.1.2" type="github">
  <diagram name="Page-1" id="UAjVmTnlj2uXrMLPeRVk">
    <mxGraphModel dx="932" dy="1299" grid="1" gridSize="10" guides="1" tooltips="1" connect="1" arrows="1" fold="1" page="1" pageScale="1" pageWidth="827" pageHeight="1169" math="0" shadow="0">
      <root>
        <mxCell id="0" />
        <mxCell id="1" parent="0" />
        <mxCell id="N-OTAbQb7IdHJ-ApCSyE-1" value="VPC Enedis -eco" style="points=[[0,0],[0.25,0],[0.5,0],[0.75,0],[1,0],[1,0.25],[1,0.5],[1,0.75],[1,1],[0.75,1],[0.5,1],[0.25,1],[0,1],[0,0.75],[0,0.5],[0,0.25]];outlineConnect=0;gradientColor=none;html=1;whiteSpace=wrap;fontSize=12;fontStyle=0;container=1;pointerEvents=0;collapsible=0;recursiveResize=0;shape=mxgraph.aws4.group;grIcon=mxgraph.aws4.group_vpc2;strokeColor=#8C4FFF;fillColor=none;verticalAlign=top;align=left;spacingLeft=30;fontColor=#AAB7B8;dashed=0;rotation=0;" parent="1" vertex="1">
          <mxGeometry x="20" y="170" width="800" height="908" as="geometry" />
        </mxCell>
        <mxCell id="N-OTAbQb7IdHJ-ApCSyE-2" value="Public subnet" style="points=[[0,0],[0.25,0],[0.5,0],[0.75,0],[1,0],[1,0.25],[1,0.5],[1,0.75],[1,1],[0.75,1],[0.5,1],[0.25,1],[0,1],[0,0.75],[0,0.5],[0,0.25]];outlineConnect=0;gradientColor=none;html=1;whiteSpace=wrap;fontSize=12;fontStyle=0;container=1;pointerEvents=0;collapsible=0;recursiveResize=0;shape=mxgraph.aws4.group;grIcon=mxgraph.aws4.group_security_group;grStroke=0;strokeColor=#7AA116;fillColor=#F2F6E8;verticalAlign=top;align=left;spacingLeft=30;fontColor=#248814;dashed=0;" parent="N-OTAbQb7IdHJ-ApCSyE-1" vertex="1">
          <mxGeometry x="180" y="310" width="590" height="334.5" as="geometry" />
        </mxCell>
        <mxCell id="N-OTAbQb7IdHJ-ApCSyE-4" value="EC2 Bastion" style="sketch=0;points=[[0,0,0],[0.25,0,0],[0.5,0,0],[0.75,0,0],[1,0,0],[0,1,0],[0.25,1,0],[0.5,1,0],[0.75,1,0],[1,1,0],[0,0.25,0],[0,0.5,0],[0,0.75,0],[1,0.25,0],[1,0.5,0],[1,0.75,0]];outlineConnect=0;fontColor=#232F3E;fillColor=#ED7100;strokeColor=#ffffff;dashed=0;verticalLabelPosition=bottom;verticalAlign=top;align=center;html=1;fontSize=12;fontStyle=0;aspect=fixed;shape=mxgraph.aws4.resourceIcon;resIcon=mxgraph.aws4.ec2;" parent="N-OTAbQb7IdHJ-ApCSyE-2" vertex="1">
          <mxGeometry x="330" y="30" width="60" height="60" as="geometry" />
        </mxCell>
        <mxCell id="N-OTAbQb7IdHJ-ApCSyE-12" value="S3 Pièces jointes" style="sketch=0;points=[[0,0,0],[0.25,0,0],[0.5,0,0],[0.75,0,0],[1,0,0],[0,1,0],[0.25,1,0],[0.5,1,0],[0.75,1,0],[1,1,0],[0,0.25,0],[0,0.5,0],[0,0.75,0],[1,0.25,0],[1,0.5,0],[1,0.75,0]];outlineConnect=0;fontColor=#232F3E;fillColor=#7AA116;strokeColor=#ffffff;dashed=0;verticalLabelPosition=bottom;verticalAlign=top;align=center;html=1;fontSize=12;fontStyle=0;aspect=fixed;shape=mxgraph.aws4.resourceIcon;resIcon=mxgraph.aws4.s3;" parent="N-OTAbQb7IdHJ-ApCSyE-2" vertex="1">
          <mxGeometry x="110" y="158.5" width="71.5" height="71.5" as="geometry" />
        </mxCell>
        <mxCell id="N-OTAbQb7IdHJ-ApCSyE-16" value="" style="edgeStyle=orthogonalEdgeStyle;rounded=0;orthogonalLoop=1;jettySize=auto;html=1;" parent="N-OTAbQb7IdHJ-ApCSyE-2" source="N-OTAbQb7IdHJ-ApCSyE-14" target="N-OTAbQb7IdHJ-ApCSyE-4" edge="1">
          <mxGeometry relative="1" as="geometry" />
        </mxCell>
        <mxCell id="N-OTAbQb7IdHJ-ApCSyE-14" value="Front&amp;nbsp;" style="sketch=0;points=[[0,0,0],[0.25,0,0],[0.5,0,0],[0.75,0,0],[1,0,0],[0,1,0],[0.25,1,0],[0.5,1,0],[0.75,1,0],[1,1,0],[0,0.25,0],[0,0.5,0],[0,0.75,0],[1,0.25,0],[1,0.5,0],[1,0.75,0]];outlineConnect=0;fontColor=#232F3E;fillColor=#DD344C;strokeColor=#ffffff;dashed=0;verticalLabelPosition=bottom;verticalAlign=top;align=center;html=1;fontSize=12;fontStyle=0;aspect=fixed;shape=mxgraph.aws4.resourceIcon;resIcon=mxgraph.aws4.amplify;" parent="N-OTAbQb7IdHJ-ApCSyE-2" vertex="1">
          <mxGeometry x="325" y="160" width="70" height="70" as="geometry" />
        </mxCell>
        <mxCell id="N-OTAbQb7IdHJ-ApCSyE-17" value="" style="endArrow=classic;html=1;rounded=0;exitX=0;exitY=0.5;exitDx=0;exitDy=0;exitPerimeter=0;" parent="N-OTAbQb7IdHJ-ApCSyE-2" source="N-OTAbQb7IdHJ-ApCSyE-14" target="N-OTAbQb7IdHJ-ApCSyE-12" edge="1">
          <mxGeometry width="50" height="50" relative="1" as="geometry">
            <mxPoint x="240" y="190" as="sourcePoint" />
            <mxPoint x="290" y="140" as="targetPoint" />
          </mxGeometry>
        </mxCell>
        <mxCell id="N-OTAbQb7IdHJ-ApCSyE-26" value="Nat Gateway&lt;br&gt;" style="sketch=0;outlineConnect=0;fontColor=#232F3E;gradientColor=none;fillColor=#8C4FFF;strokeColor=none;dashed=0;verticalLabelPosition=bottom;verticalAlign=top;align=center;html=1;fontSize=12;fontStyle=0;aspect=fixed;pointerEvents=1;shape=mxgraph.aws4.nat_gateway;" parent="N-OTAbQb7IdHJ-ApCSyE-2" vertex="1">
          <mxGeometry x="500" y="35.5" width="49" height="49" as="geometry" />
        </mxCell>
        <mxCell id="543uE-yi0nf0eoulFrGD-1" value="" style="outlineConnect=0;dashed=0;verticalLabelPosition=bottom;verticalAlign=top;align=center;html=1;shape=mxgraph.aws3.route_table;fillColor=#F58536;gradientColor=none;" vertex="1" parent="N-OTAbQb7IdHJ-ApCSyE-2">
          <mxGeometry x="325" y="290" width="67.5" height="44.5" as="geometry" />
        </mxCell>
        <mxCell id="N-OTAbQb7IdHJ-ApCSyE-7" value="ECR Back" style="sketch=0;points=[[0,0,0],[0.25,0,0],[0.5,0,0],[0.75,0,0],[1,0,0],[0,1,0],[0.25,1,0],[0.5,1,0],[0.75,1,0],[1,1,0],[0,0.25,0],[0,0.5,0],[0,0.75,0],[1,0.25,0],[1,0.5,0],[1,0.75,0]];outlineConnect=0;fontColor=#232F3E;fillColor=#ED7100;strokeColor=#ffffff;dashed=0;verticalLabelPosition=bottom;verticalAlign=top;align=center;html=1;fontSize=12;fontStyle=0;aspect=fixed;shape=mxgraph.aws4.resourceIcon;resIcon=mxgraph.aws4.ecr;" parent="N-OTAbQb7IdHJ-ApCSyE-1" vertex="1">
          <mxGeometry y="342" width="58" height="58" as="geometry" />
        </mxCell>
        <mxCell id="N-OTAbQb7IdHJ-ApCSyE-10" value="" style="endArrow=classic;html=1;rounded=0;exitX=1;exitY=0.5;exitDx=0;exitDy=0;exitPerimeter=0;" parent="N-OTAbQb7IdHJ-ApCSyE-1" source="N-OTAbQb7IdHJ-ApCSyE-7" target="N-OTAbQb7IdHJ-ApCSyE-4" edge="1">
          <mxGeometry width="50" height="50" relative="1" as="geometry">
            <mxPoint x="200" y="425" as="sourcePoint" />
            <mxPoint x="250" y="375" as="targetPoint" />
          </mxGeometry>
        </mxCell>
        <mxCell id="N-OTAbQb7IdHJ-ApCSyE-19" value="DNS Enedis-eco.fr" style="sketch=0;outlineConnect=0;fontColor=#232F3E;gradientColor=none;fillColor=#8C4FFF;strokeColor=none;dashed=0;verticalLabelPosition=bottom;verticalAlign=top;align=center;html=1;fontSize=12;fontStyle=0;aspect=fixed;pointerEvents=1;shape=mxgraph.aws4.route_53_resolver_dns_firewall;" parent="N-OTAbQb7IdHJ-ApCSyE-1" vertex="1">
          <mxGeometry x="510" y="740" width="60" height="60" as="geometry" />
        </mxCell>
        <mxCell id="N-OTAbQb7IdHJ-ApCSyE-11" value="&amp;nbsp; &amp;nbsp; &amp;nbsp; &amp;nbsp; &amp;nbsp; &amp;nbsp;IGW&lt;br&gt;&amp;nbsp;" style="sketch=0;outlineConnect=0;fontColor=#232F3E;gradientColor=none;fillColor=#8C4FFF;strokeColor=none;dashed=0;verticalLabelPosition=bottom;verticalAlign=top;align=center;html=1;fontSize=12;fontStyle=0;aspect=fixed;pointerEvents=1;shape=mxgraph.aws4.internet_gateway;" parent="N-OTAbQb7IdHJ-ApCSyE-1" vertex="1">
          <mxGeometry x="501" y="850" width="78" height="78" as="geometry" />
        </mxCell>
        <mxCell id="543uE-yi0nf0eoulFrGD-7" value="Availability Zone a" style="text;html=1;strokeColor=none;fillColor=none;align=center;verticalAlign=middle;whiteSpace=wrap;rounded=0;" vertex="1" parent="N-OTAbQb7IdHJ-ApCSyE-1">
          <mxGeometry x="200" y="20" width="120" height="30" as="geometry" />
        </mxCell>
        <mxCell id="N-OTAbQb7IdHJ-ApCSyE-3" value="Private subnet" style="points=[[0,0],[0.25,0],[0.5,0],[0.75,0],[1,0],[1,0.25],[1,0.5],[1,0.75],[1,1],[0.75,1],[0.5,1],[0.25,1],[0,1],[0,0.75],[0,0.5],[0,0.25]];outlineConnect=0;gradientColor=none;html=1;whiteSpace=wrap;fontSize=12;fontStyle=0;container=1;pointerEvents=0;collapsible=0;recursiveResize=0;shape=mxgraph.aws4.group;grIcon=mxgraph.aws4.group_security_group;grStroke=0;strokeColor=#00A4A6;fillColor=#E6F6F7;verticalAlign=top;align=left;spacingLeft=30;fontColor=#147EBA;dashed=0;" parent="1" vertex="1">
          <mxGeometry x="200" y="240" width="590" height="280" as="geometry" />
        </mxCell>
        <mxCell id="N-OTAbQb7IdHJ-ApCSyE-18" value="" style="edgeStyle=orthogonalEdgeStyle;rounded=0;orthogonalLoop=1;jettySize=auto;html=1;" parent="N-OTAbQb7IdHJ-ApCSyE-3" source="N-OTAbQb7IdHJ-ApCSyE-5" target="N-OTAbQb7IdHJ-ApCSyE-13" edge="1">
          <mxGeometry relative="1" as="geometry" />
        </mxCell>
        <mxCell id="N-OTAbQb7IdHJ-ApCSyE-5" value="EC2 Back-end" style="sketch=0;points=[[0,0,0],[0.25,0,0],[0.5,0,0],[0.75,0,0],[1,0,0],[0,1,0],[0.25,1,0],[0.5,1,0],[0.75,1,0],[1,1,0],[0,0.25,0],[0,0.5,0],[0,0.75,0],[1,0.25,0],[1,0.5,0],[1,0.75,0]];outlineConnect=0;fontColor=#232F3E;fillColor=#ED7100;strokeColor=#ffffff;dashed=0;verticalLabelPosition=bottom;verticalAlign=top;align=center;html=1;fontSize=12;fontStyle=0;aspect=fixed;shape=mxgraph.aws4.resourceIcon;resIcon=mxgraph.aws4.ec2;" parent="N-OTAbQb7IdHJ-ApCSyE-3" vertex="1">
          <mxGeometry x="390" y="120" width="60" height="60" as="geometry" />
        </mxCell>
        <mxCell id="N-OTAbQb7IdHJ-ApCSyE-13" value="Données" style="sketch=0;points=[[0,0,0],[0.25,0,0],[0.5,0,0],[0.75,0,0],[1,0,0],[0,1,0],[0.25,1,0],[0.5,1,0],[0.75,1,0],[1,1,0],[0,0.25,0],[0,0.5,0],[0,0.75,0],[1,0.25,0],[1,0.5,0],[1,0.75,0]];outlineConnect=0;fontColor=#232F3E;fillColor=#C925D1;strokeColor=#ffffff;dashed=0;verticalLabelPosition=bottom;verticalAlign=top;align=center;html=1;fontSize=12;fontStyle=0;aspect=fixed;shape=mxgraph.aws4.resourceIcon;resIcon=mxgraph.aws4.rds;" parent="N-OTAbQb7IdHJ-ApCSyE-3" vertex="1">
          <mxGeometry x="390" width="60" height="60" as="geometry" />
        </mxCell>
        <mxCell id="N-OTAbQb7IdHJ-ApCSyE-8" value="" style="endArrow=classic;startArrow=classic;html=1;rounded=0;exitX=0.5;exitY=0;exitDx=0;exitDy=0;exitPerimeter=0;entryX=0.75;entryY=1;entryDx=0;entryDy=0;entryPerimeter=0;" parent="1" source="N-OTAbQb7IdHJ-ApCSyE-4" target="N-OTAbQb7IdHJ-ApCSyE-5" edge="1">
          <mxGeometry width="50" height="50" relative="1" as="geometry">
            <mxPoint x="720" y="510" as="sourcePoint" />
            <mxPoint x="770" y="460" as="targetPoint" />
            <Array as="points">
              <mxPoint x="560" y="480" />
              <mxPoint x="635" y="480" />
            </Array>
          </mxGeometry>
        </mxCell>
        <mxCell id="N-OTAbQb7IdHJ-ApCSyE-25" value="" style="edgeStyle=orthogonalEdgeStyle;rounded=0;orthogonalLoop=1;jettySize=auto;html=1;" parent="1" source="N-OTAbQb7IdHJ-ApCSyE-23" target="N-OTAbQb7IdHJ-ApCSyE-19" edge="1">
          <mxGeometry relative="1" as="geometry">
            <mxPoint x="460" y="1090" as="targetPoint" />
            <Array as="points">
              <mxPoint x="560" y="1120" />
            </Array>
          </mxGeometry>
        </mxCell>
        <mxCell id="N-OTAbQb7IdHJ-ApCSyE-23" value="&lt;br&gt;&lt;br&gt;&lt;br&gt;&lt;br&gt;&lt;br&gt;Users" style="shape=actor;whiteSpace=wrap;html=1;" parent="1" vertex="1">
          <mxGeometry x="350" y="1090" width="30" height="40" as="geometry" />
        </mxCell>
        <mxCell id="N-OTAbQb7IdHJ-ApCSyE-27" style="edgeStyle=orthogonalEdgeStyle;rounded=0;orthogonalLoop=1;jettySize=auto;html=1;exitX=1;exitY=0.5;exitDx=0;exitDy=0;exitPerimeter=0;" parent="1" source="N-OTAbQb7IdHJ-ApCSyE-5" target="N-OTAbQb7IdHJ-ApCSyE-26" edge="1">
          <mxGeometry relative="1" as="geometry" />
        </mxCell>
        <mxCell id="543uE-yi0nf0eoulFrGD-2" value="" style="rounded=1;arcSize=10;dashed=1;strokeColor=#F59D56;fillColor=none;gradientColor=none;dashPattern=8 4;strokeWidth=2;" vertex="1" parent="1">
          <mxGeometry x="180" y="220" width="620" height="660" as="geometry" />
        </mxCell>
        <mxCell id="543uE-yi0nf0eoulFrGD-5" value="" style="endArrow=classic;startArrow=classic;html=1;rounded=0;" edge="1" parent="1" source="N-OTAbQb7IdHJ-ApCSyE-19">
          <mxGeometry width="50" height="50" relative="1" as="geometry">
            <mxPoint x="510" y="870" as="sourcePoint" />
            <mxPoint x="560" y="820" as="targetPoint" />
          </mxGeometry>
        </mxCell>
        <mxCell id="543uE-yi0nf0eoulFrGD-6" value="" style="endArrow=classic;startArrow=classic;html=1;rounded=0;" edge="1" parent="1">
          <mxGeometry width="50" height="50" relative="1" as="geometry">
            <mxPoint x="540" y="770" as="sourcePoint" />
            <mxPoint x="540" y="710" as="targetPoint" />
          </mxGeometry>
        </mxCell>
      </root>
    </mxGraphModel>
  </diagram>
</mxfile>
